<svg xmlns="http://www.w3.org/2000/svg" xmlns:xlink="http://www.w3.org/1999/xlink" id="aca3dd23-1327-4457-bb54-cb32560b3b43" x="0" y="0" version="1.1" viewBox="0 0 619.8 768.6" xml:space="preserve" style="enable-background:new 0 0 619.8 768.6"><style type="text/css">.st0{fill:#fff;stroke:#5764ae;stroke-width:2;stroke-miterlimit:10}.st1{opacity:.2;enable-background:new}.st2{fill:#3f3d56}.st3{fill:#65c294}.st4{fill:#2f2e41}.st5{fill:#fbbebe}.st6{fill:#575a89}.st7{fill:#29283a}</style><title>my_location</title><path d="M436,173.2h-3.9V66c0-34.3-27.8-62-62-62c0,0,0,0,0,0H143c-34.3,0-62,27.8-62,62c0,0,0,0,0,0v588	c0,34.3,27.8,62,62,62c0,0,0,0,0,0h227.1c34.3,0,62-27.8,62-62c0,0,0,0,0,0V249.5h3.9V173.2z" class="st0"/><path d="M418.9,66.5v587.2c0,25.6-20.7,46.3-46.2,46.3c0,0-0.1,0-0.1,0H144.4c-25.6,0-46.3-20.7-46.3-46.3	c0,0,0,0,0-0.1V66.5c0-25.6,20.7-46.3,46.3-46.3c0,0,0,0,0.1,0h27.7c-4.6,11.3,0.8,24.1,12.1,28.7c2.6,1.1,5.5,1.6,8.3,1.6h130.1	c12.2,0,22-9.9,22-22c0-2.9-0.6-5.7-1.6-8.3h29.6C398.2,20.1,418.9,40.8,418.9,66.5C418.9,66.4,418.9,66.4,418.9,66.5L418.9,66.5z" class="st1"/><path d="M155.6,20.1V700h-11.2c-2.9,0-5.9-0.3-8.8-0.8V21c2.9-0.6,5.8-0.8,8.8-0.8L155.6,20.1z" class="st2"/><rect width="20" height="649.5" x="243.6" y="50.5" class="st2"/><path d="M388.6,23v674.1c-5.1,1.9-10.6,2.9-16.1,2.9h-3.9V20.1h3.9C378.1,20.1,383.5,21.1,388.6,23z" class="st2"/><rect width="320.8" height="20" x="98.1" y="133.3" class="st2"/><rect width="320.8" height="20" x="98.1" y="360.3" class="st2"/><rect width="161" height="20" x="247.6" y="472.3" class="st2"/><rect width="175.3" height="20" x="243.6" y="218.3" class="st2"/><polygon points="258.1 152 255.8 153.3 243.6 160.3 155.6 211.2 135.6 222.7 98.1 244.4 98.1 221.3 135.6 199.6 155.6 188.1 215.8 153.3 243.6 137.3 248.1 134.7" class="st2"/><rect width="320.8" height="20" x="98.1" y="579.3" class="st2"/><path d="M233.6,219.3c0,63.5-115,205-115,205s-115-141.5-115-205s51.5-115,115-115S233.6,155.8,233.6,219.3z" class="st3"/><circle cx="118.6" cy="214.3" r="68" class="st1"/><circle cx="116.4" cy="215.9" r="25.3" class="st3"/><path d="M156,289.3c4-20.6-9.5-40.5-30.1-44.5c-20.6-4-40.5,9.5-44.5,30.1c-0.9,4.7-0.9,9.6,0,14.4H156z" class="st3"/><path d="M470.4,126.8c0,0-18.1-6.5-29.7,19.4s-29.7,54.2-29.7,54.2l10.3,2.6c0,0,2.6-18.1,9-20.6l-2.6,23.2	c0,0,77.4,27.1,112.3-2.6l-1.3-9c0,0,5.2,1.3,5.2,9l3.9-3.9c0,0-3.9-7.7-15.5-18.1c-7.6-6.8-10.2-19.7-11.1-27.7	c-0.7-6.7-3.4-13.1-7.7-18.3C505.8,126,491.7,116.5,470.4,126.8z" class="st4"/><path d="M580.1,272.8c0,0,34,29,39,46s-19,19-19,19l-52,5c0,0-1,24-10,27s-1.8-39.7-1.8-39.7l50.8-14.3l-23-24	L580.1,272.8z" class="st5"/><path d="M421.1,302.8l-4,53l-22,90c0,0-20,41-3,42s16-39,16-39l32-85l3-58L421.1,302.8z" class="st5"/><polygon points="439.1 686.8 439.1 725.8 463.1 719.8 456.1 683.8" class="st5"/><polygon points="567.1 686.8 567.1 725.8 591.1 719.8 584.1 683.8" class="st5"/><circle cx="477.1" cy="176.8" r="33" class="st5"/><path d="M462.1,192.8c0,0,12,43-7,54c-19,11,48,19,66-14c0,0-32-11-23-40H462.1z" class="st5"/><path d="M439.1,251.8l-6-2c0,0-12,5-12,14c0,9-2,45-2,45l27,3L439.1,251.8z" class="st6"/><path d="M443.1,358.8c0,0-33,42.1-33,93.1s8,236,8,236s30,14,48-3l16-210l63,217c0,0,30,6,44-4l-27-140	c0,0-1-166-31-178S443.1,358.8,443.1,358.8z" class="st7"/><path d="M465.1,713.8c0,0-26-14-28,5s-3,31-3,31s-3,23,25,18s18-19,18-19s-10-16-10-20S465.1,713.8,465.1,713.8z" class="st4"/><path d="M564.5,713.4c0,0,23.7-17.7,28.4,0.8s7.5,30.2,7.5,30.2s6.3,22.3-22.1,21.5s-20.6-16.2-20.6-16.2	s7.5-17.3,7-21.3S564.5,713.4,564.5,713.4z" class="st4"/><path d="M535.1,237.8c0,0,13-7,26,8l26,30l-20,22l-38-23L535.1,237.8z" class="st6"/><path d="M441.4,177.1c11.7-8.5,21.1-18.2,27.4-29.8c0,0,21.4,23.8,34.5,25s1.2-28.6,1.2-28.6l-23.8-6l-22.6,2.4	L440.3,152L441.4,177.1z" class="st4"/><path d="M516.1,230.8c0,0-14,22.1-56,11.6l-23.8,6.6l-3.2,0.9c0,0,3,60,11,71s6,17,4,18s-7-1-4,4s7,2,3,5s-6,14-6,14	l94,12c0,0-3-39,5-59s10-28,10-28l-6-50L516.1,230.8z" class="st6"/><circle cx="118.6" cy="476.3" r="31" class="st3"/></svg>